<?xml version="1.0" standalone="no"?>
<!DOCTYPE svg PUBLIC "-//W3C//DTD SVG 20010904//EN"
 "http://www.w3.org/TR/2001/REC-SVG-20010904/DTD/svg10.dtd">
<svg version="1.0" xmlns="http://www.w3.org/2000/svg"
 width="1024.000000pt" height="1024.000000pt" viewBox="0 0 1024.000000 1024.000000"
 preserveAspectRatio="xMidYMid meet">
<metadata>
Created by potrace 1.14, written by Peter Selinger 2001-2017
</metadata>
<g transform="translate(0.000000,1024.000000) scale(0.100000,-0.100000)"
fill="#000000" stroke="none">
<path d="M0 5120 l0 -5120 2049 0 2048 0 1 78 c0 42 -2 137 -5 210 l-5 132
-199 0 -199 0 0 210 0 210 -195 0 -195 0 0 1100 0 1100 -196 0 -195 0 3 185 3
185 -170 2 -170 3 -3 272 -2 273 -178 2 -177 3 -3 208 -2 207 195 0 196 0 -3
735 -3 735 81 0 81 0 6 -60 c4 -33 15 -79 26 -102 37 -84 60 -155 87 -263 16
-67 35 -122 50 -142 22 -29 24 -41 24 -138 0 -148 5 -156 118 -185 78 -20 90
-26 101 -51 l13 -29 120 0 c105 0 123 3 145 20 28 22 68 26 79 8 5 -8 86 -10
311 -5 263 6 305 5 309 -8 5 -12 29 -15 121 -15 106 0 115 1 120 20 3 11 12
20 20 20 8 0 26 13 41 30 26 28 31 29 122 32 l95 3 3 80 c2 44 7 84 12 89 6 6
10 43 10 84 0 67 3 77 25 98 24 22 25 27 25 150 0 102 3 129 15 138 14 10 27
66 40 179 l6 47 164 0 164 0 11 -42 c48 -185 115 -380 160 -469 l20 -39 190 0
190 0 0 30 0 30 224 0 225 0 27 25 27 25 223 0 c143 0 224 4 224 10 0 6 45 10
116 10 l116 0 11 30 c11 30 12 30 84 30 40 0 74 1 75 3 1 1 5 169 8 372 l5
370 253 3 252 2 0 -352 c0 -194 3 -390 7 -435 l6 -83 -184 -2 -184 -3 -3 -972
-2 -973 -155 0 -155 0 0 -185 0 -185 -201 -2 -201 -3 1 -898 2 -897 -135 0
-136 0 -2 -202 -3 -203 -192 -3 -193 -2 0 -215 0 -215 -200 0 -200 0 0 -205 0
-205 745 0 745 0 1 153 c1 83 5 361 8 617 l6 465 42 3 43 3 2 1002 3 1002 375
5 375 5 3 343 2 342 169 0 c93 0 176 -3 185 -6 14 -5 16 -41 16 -295 0 -159 3
-289 8 -288 10 1 144 88 277 180 39 27 147 100 240 163 157 105 472 320 574
391 24 17 51 38 61 47 29 26 56 38 89 38 31 0 39 -14 56 -95 4 -23 16 -35 46
-49 22 -10 52 -30 66 -45 30 -31 67 -107 60 -125 -3 -7 -47 -41 -98 -77 -51
-35 -120 -83 -153 -107 -62 -43 -91 -64 -276 -197 -58 -42 -130 -92 -161 -113
-31 -20 -63 -41 -70 -47 -11 -8 -13 -53 -11 -237 l3 -228 192 -2 192 -3 3
-217 2 -218 225 0 225 0 0 -995 0 -995 -227 -2 -228 -3 -3 -207 -2 -208 495 0
495 0 0 5120 0 5120 -5120 0 -5120 0 0 -5120z m9060 4560 l0 -350 -230 0 -230
0 0 -355 0 -355 -245 0 -245 0 -2 -530 -3 -530 248 -2 249 -3 1 -340 2 -340
320 0 320 0 3 -307 2 -308 -385 0 -385 0 0 310 0 310 -205 0 -206 0 3 339 c2
222 0 337 -7 335 -24 -7 -462 -12 -473 -5 -9 6 -12 127 -10 532 l3 524 243 3
242 2 0 365 0 365 205 0 205 0 0 345 0 345 290 0 290 0 0 -350z m-4008 -527
l3 -188 197 -3 198 -2 2 -178 3 -177 188 2 187 3 0 -215 0 -215 195 0 195 0 2
-222 3 -223 163 -3 162 -2 0 -230 0 -230 170 0 170 0 0 -195 0 -195 -155 0
-155 0 0 -141 0 -141 -32 6 c-18 3 -62 21 -98 40 -52 27 -66 39 -70 62 -4 22
-12 30 -37 35 -18 3 -39 11 -46 17 -19 16 -49 17 -212 9 -178 -10 -185 -11
-185 -41 0 -16 -15 -35 -42 -58 -63 -51 -63 -51 -161 -49 -83 2 -92 0 -116
-23 -14 -13 -44 -29 -67 -35 -22 -6 -49 -20 -59 -31 -16 -18 -31 -20 -127 -20
-107 0 -109 0 -118 -26 -6 -14 -10 -36 -10 -50 0 -21 -5 -24 -34 -24 -19 0
-38 -5 -42 -11 -3 -6 -9 -40 -12 -75 -4 -54 -8 -64 -23 -64 -12 0 -21 10 -25
25 l-6 25 -239 0 c-225 0 -239 1 -249 19 -5 11 -45 33 -92 51 -45 18 -95 43
-111 56 -25 21 -39 24 -111 24 -46 0 -105 -7 -132 -15 -26 -8 -59 -12 -72 -8
-15 4 -30 -1 -45 -15 -17 -15 -43 -21 -112 -27 -49 -4 -99 -12 -110 -18 -11
-6 -49 -12 -85 -13 -91 -4 -231 -27 -257 -42 -12 -7 -44 -15 -70 -18 -26 -4
-66 -15 -88 -24 -22 -10 -115 -28 -206 -39 -91 -12 -181 -26 -200 -31 -55 -16
-58 -14 -61 48 l-3 57 -218 3 -217 2 2 278 3 277 108 3 107 3 0 644 0 645 165
0 165 0 2 -217 3 -218 183 -3 182 -2 0 440 0 440 475 0 475 0 0 175 0 175 205
0 205 0 0 190 0 190 195 0 195 0 2 -187z m1288 -2673 l0 -70 120 0 119 0 3
-82 3 -83 153 -3 152 -3 0 -178 c0 -191 -5 -218 -52 -287 -15 -23 -28 -55 -28
-72 0 -16 -3 -44 -6 -61 l-6 -31 -292 0 c-240 -1 -294 -3 -310 -15 -16 -12
-65 -15 -267 -15 -235 0 -248 -1 -254 -19 -6 -21 -93 -41 -178 -41 -45 0 -46
1 -56 38 -5 20 -12 54 -16 75 -3 22 -11 37 -20 37 -19 0 -25 26 -39 168 l-11
117 -35 17 c-34 17 -35 20 -41 90 -4 40 -10 93 -13 118 -6 43 -5 46 26 65 27
16 34 29 39 63 7 53 15 61 23 22 l6 -31 82 3 c90 3 89 3 74 63 l-6 25 100 0
c60 0 100 4 100 10 0 6 29 10 68 10 75 0 96 8 182 74 33 25 74 49 92 55 18 5
90 10 161 10 l127 1 0 -70z m-1965 -281 c44 -20 110 -52 148 -69 l67 -31 0
-87 c0 -56 -8 -116 -21 -167 -12 -44 -29 -143 -39 -220 -10 -77 -23 -171 -29
-210 -6 -38 -16 -122 -22 -186 l-11 -117 -30 -6 c-16 -3 -91 -9 -167 -12 -132
-7 -139 -6 -160 15 -20 20 -28 21 -278 21 -218 0 -273 -3 -353 -20 -92 -19
-213 -26 -257 -14 -14 4 -23 17 -28 40 -4 23 -14 39 -30 46 -21 10 -23 17 -27
99 -2 66 -7 91 -19 101 -9 7 -33 74 -54 148 -21 74 -48 173 -61 219 -13 46
-24 87 -24 92 0 5 72 9 160 9 l159 0 3 108 3 107 105 28 c58 15 177 36 265 47
213 25 220 27 254 55 24 21 40 25 92 25 35 0 84 6 109 14 70 21 152 10 245
-35z m5323 -396 l2 -433 -230 0 -230 0 0 -257 0 -256 -185 7 -185 7 0 -246 0
-245 -195 0 -195 0 0 260 0 260 190 0 190 0 2 233 3 232 188 3 188 2 -1 363
c-1 199 -1 395 -1 435 l1 72 228 -2 227 -3 3 -432z m-7488 -933 l0 -490 -195
0 -195 0 0 490 0 490 195 0 195 0 0 -490z"/>
<path d="M5450 7061 l0 -168 38 -7 c20 -3 234 -6 475 -6 l437 0 0 175 0 175
-475 0 -475 0 0 -169z"/>
<path d="M2924 6867 c-2 -7 -3 -91 -2 -187 l3 -175 123 0 c67 0 329 1 582 3
l460 2 0 185 0 185 -580 0 c-464 0 -582 -3 -586 -13z"/>
<path d="M5840 6040 l0 -190 238 2 237 3 3 188 2 187 -240 0 -240 0 0 -190z"/>
<path d="M3472 5843 l-92 -4 2 -167 3 -167 353 -3 352 -2 0 175 0 175 -262 -2
c-145 -1 -305 -4 -356 -5z"/>
<path d="M5260 3750 l0 -160 515 0 515 0 0 160 0 160 -515 0 -515 0 0 -160z"/>
<path d="M4680 3470 l0 -100 280 0 280 0 0 100 0 100 -280 0 -280 0 0 -100z"/>
<path d="M7572 2393 l3 -448 245 0 245 0 -3 285 c-1 157 -5 358 -8 448 l-6
162 -239 0 -239 0 2 -447z"/>
</g>
</svg>
